<svg width="22" height="21" viewBox="0 0 22 21" fill="none" xmlns="http://www.w3.org/2000/svg">
<path d="M14.9246 12.697C15.1057 12.3245 14.9505 11.8757 14.578 11.6946C14.2055 11.5135 13.7567 11.6687 13.5756 12.0412C13.5151 12.1655 13.2116 12.5763 12.6763 12.9591C12.1593 13.3287 11.4986 13.6191 10.7501 13.6191C9.17788 13.6191 8.33932 12.6707 7.87945 11.9612C7.65416 11.6136 7.18975 11.5145 6.84217 11.7398C6.49458 11.9651 6.39543 12.4295 6.62072 12.7771C7.19789 13.6675 8.43341 15.1191 10.7501 15.1191C11.894 15.1191 12.8537 14.6762 13.5487 14.1792C14.2255 13.6953 14.7258 13.1061 14.9246 12.697Z" fill="white"/>
<path fill-rule="evenodd" clip-rule="evenodd" d="M12.2569 0.44955L13.1316 1.02252L21.1588 6.24019C21.5061 6.46593 21.6047 6.93047 21.3789 7.27776C21.1532 7.62506 20.6886 7.7236 20.3413 7.49786L19.4626 6.92664C19.4874 7.11223 19.5001 7.30058 19.5001 7.49063V15.8692C19.5001 18.2164 17.5973 20.1192 15.2501 20.1192H6.25009C3.90288 20.1192 2.00009 18.2164 2.00009 15.8692V7.49063C2.00009 7.30058 2.01279 7.11223 2.03762 6.92664L1.15883 7.49786C0.811534 7.7236 0.346997 7.62506 0.121255 7.27776C-0.104486 6.93047 -0.00594819 6.46593 0.341347 6.24019L8.36851 1.02254L9.24329 0.44955C10.1584 -0.14985 11.3418 -0.14985 12.2569 0.44955ZM11.4313 1.70634L12.3119 2.27872L16.7569 5.19018C17.5327 5.69832 18.0001 6.56324 18.0001 7.49063V15.8692C18.0001 17.388 16.7689 18.6192 15.2501 18.6192H6.25009C4.7313 18.6192 3.50009 17.388 3.50009 15.8692V7.49063C3.50009 6.56324 3.96751 5.69832 4.74329 5.19018L9.18824 2.27874L10.0689 1.70634C10.4831 1.43708 11.0171 1.43708 11.4313 1.70634Z" fill="white"/>
</svg>
